<?xml version="1.0"?>
<svg xmlns="http://www.w3.org/2000/svg" xmlns:xlink="http://www.w3.org/1999/xlink" xmlns:svgjs="http://svgjs.com/svgjs" version="1.1" width="512" height="512" x="0" y="0" viewBox="0 0 512.016 512.016" style="enable-background:new 0 0 512 512" xml:space="preserve" class=""><g>
<polygon xmlns="http://www.w3.org/2000/svg" style="" points="32.018,277.359 480,21.369 416.002,405.353 " fill="#c2ddf2" data-original="#c2ddf2" class=""/>
<g xmlns="http://www.w3.org/2000/svg">
	<path style="" d="M416.002,426.686c-2.261,0-4.544-0.363-6.741-1.109L25.277,297.582   c-7.978-2.645-13.653-9.749-14.485-18.133c-0.832-8.384,3.349-16.447,10.645-20.628L469.419,2.832   c7.146-4.117,16.021-3.712,22.762,1.003c6.762,4.714,10.218,12.885,8.853,21.012l-63.997,383.984   c-1.024,6.165-4.693,11.562-10.048,14.762C423.661,425.641,419.842,426.686,416.002,426.686z M84.027,272.218l315.038,105.02   l52.499-315.059L84.027,272.218z" fill="#179397" data-original="#1138f7" class=""/>
	<path style="" d="M202.678,512.016c-1.92,0-3.883-0.277-5.781-0.811c-8.704-2.432-14.89-10.112-15.509-19.114   l-10.666-161.487c-0.384-5.866,1.685-11.669,5.717-15.978L464.427,6.821l31.167,29.14L213.92,337.004l6.101,92.305l55.934-78.951   l34.815,24.66l-90.663,127.995C216.032,508.752,209.483,512.016,202.678,512.016z" fill="#179397" data-original="#1138f7" class=""/>
</g>
<g xmlns="http://www.w3.org/2000/svg">
</g>
<g xmlns="http://www.w3.org/2000/svg">
</g>
<g xmlns="http://www.w3.org/2000/svg">
</g>
<g xmlns="http://www.w3.org/2000/svg">
</g>
<g xmlns="http://www.w3.org/2000/svg">
</g>
<g xmlns="http://www.w3.org/2000/svg">
</g>
<g xmlns="http://www.w3.org/2000/svg">
</g>
<g xmlns="http://www.w3.org/2000/svg">
</g>
<g xmlns="http://www.w3.org/2000/svg">
</g>
<g xmlns="http://www.w3.org/2000/svg">
</g>
<g xmlns="http://www.w3.org/2000/svg">
</g>
<g xmlns="http://www.w3.org/2000/svg">
</g>
<g xmlns="http://www.w3.org/2000/svg">
</g>
<g xmlns="http://www.w3.org/2000/svg">
</g>
<g xmlns="http://www.w3.org/2000/svg">
</g>
</g></svg>
